<svg id="visual" viewBox="0 0 960 540" width="960" height="540" xmlns="http://www.w3.org/2000/svg" xmlns:xlink="http://www.w3.org/1999/xlink" version="1.1"><path d="M512 540L525.8 525C539.7 510 567.3 480 588.5 450C609.7 420 624.3 390 609.8 360C595.3 330 551.7 300 533 270C514.3 240 520.7 210 536.3 180C552 150 577 120 588 90C599 60 596 30 594.5 15L593 0L960 0L960 15C960 30 960 60 960 90C960 120 960 150 960 180C960 210 960 240 960 270C960 300 960 330 960 360C960 390 960 420 960 450C960 480 960 510 960 525L960 540Z" fill="#fcb0b3"></path><path d="M683 540L667.2 525C651.3 510 619.7 480 600.2 450C580.7 420 573.3 390 588.5 360C603.7 330 641.3 300 658.7 270C676 240 673 210 654.3 180C635.7 150 601.3 120 606.2 90C611 60 655 30 677 15L699 0L960 0L960 15C960 30 960 60 960 90C960 120 960 150 960 180C960 210 960 240 960 270C960 300 960 330 960 360C960 390 960 420 960 450C960 480 960 510 960 525L960 540Z" fill="#ff9699"></path><path d="M697 540L689.2 525C681.3 510 665.7 480 678.2 450C690.7 420 731.3 390 742.5 360C753.7 330 735.3 300 719.5 270C703.7 240 690.3 210 692.3 180C694.3 150 711.7 120 719.5 90C727.3 60 725.7 30 724.8 15L724 0L960 0L960 15C960 30 960 60 960 90C960 120 960 150 960 180C960 210 960 240 960 270C960 300 960 330 960 360C960 390 960 420 960 450C960 480 960 510 960 525L960 540Z" fill="#ff7b7d"></path><path d="M839 540L834 525C829 510 819 480 805.2 450C791.3 420 773.7 390 774.7 360C775.7 330 795.3 300 793.2 270C791 240 767 210 769 180C771 150 799 120 810.5 90C822 60 817 30 814.5 15L812 0L960 0L960 15C960 30 960 60 960 90C960 120 960 150 960 180C960 210 960 240 960 270C960 300 960 330 960 360C960 390 960 420 960 450C960 480 960 510 960 525L960 540Z" fill="#fd5d60"></path><path d="M826 540L834.2 525C842.3 510 858.7 480 861.8 450C865 420 855 390 846.8 360C838.7 330 832.3 300 828.3 270C824.3 240 822.7 210 826 180C829.3 150 837.7 120 849.7 90C861.7 60 877.3 30 885.2 15L893 0L960 0L960 15C960 30 960 60 960 90C960 120 960 150 960 180C960 210 960 240 960 270C960 300 960 330 960 360C960 390 960 420 960 450C960 480 960 510 960 525L960 540Z" fill="#f93943"></path></svg>